<?xml version="1.0" encoding="utf-8"?>
<!-- Generator: Adobe Illustrator 19.2.1, SVG Export Plug-In . SVG Version: 6.00 Build 0)  -->
<svg version="1.1" id="layer" xmlns="http://www.w3.org/2000/svg" xmlns:xlink="http://www.w3.org/1999/xlink" x="0px" y="0px"
	 viewBox="0 0 652 652" style="enable-background:new 0 0 652 652;" xml:space="preserve">
<style type="text/css">
	.st0{fill:#00000A;}
	.st1{fill:#F9BE00;}
</style>
<g>
	<path class="st0" d="M145.5,293.5c13.9,0,25.2,9.3,25.2,19.5c0,12.7-11.4,22-25.2,22c-13.8,0-25.2-9.3-25.2-22
		C120.3,302.9,131.7,293.5,145.5,293.5 M145.5,274.9c-25.7,0-49.3,15.7-49.3,38c0,23.9,20.7,40.8,49.3,40.8
		c28.7,0,49.4-16.9,49.4-40.8C194.9,290.6,171.3,274.9,145.5,274.9"/>
	<path class="st0" d="M87.4,302.1c-4.7-5.3-12.2-8.2-20-8.2c-14,0-23.4,9.1-23.4,20.6c0,11.7,9.6,20.2,23.7,20.2
		c7.5,0,14.9-3,19.7-7.9v23.1c-7.6,2-13,3.4-20.1,3.4c-12.2,0-23.9-3.9-32.9-10.9c-9.7-7.4-14.1-17-14.1-28
		c0-10.1,4.5-19.8,12.9-27.1c8.6-7.5,21.1-12,33.4-12c7.3,0,14.1,1.4,20.9,3.8V302.1z"/>
	<path class="st1" d="M305.2,297.2h5.4c14.7,0,25,7.2,25,19.9c0,13.9-11.6,19.9-25.2,19.9h-5.1V297.2z M282.4,352.7h32.3
		c24.3,0,44.6-15.5,44.6-35.5c0-20-20.1-35.5-44.6-35.5h-32.3V352.7z"/>
	<path class="st1" d="M443.6,280.6v40c0,9.2-0.4,18.2-9,25.1c-7.2,5.8-18.5,7.9-28.6,7.9c-10,0-21.4-2.1-28.6-7.9
		c-8.6-6.9-9-15.9-9-25.1v-40h22.4v37.5c0,9.2,0.8,19.3,15.2,19.3c14.4,0,15.2-10.1,15.2-19.3v-37.5H443.6z"/>
	<path class="st1" d="M480.9,294.9h2.2c7.4,0,15.8,1.2,15.8,9c0,7.8-8.3,8.9-15.8,8.9h-2.2V294.9z M503.4,323
		c12.4-1.8,19.1-10.4,19.1-20.2c0-15.3-13.1-22-30.4-22h-34v71.6h22.7v-27.5h0.2l34.2,45.7h28.3L503.4,323z"/>
	<path class="st1" d="M582.9,326.2h-18.8l9.3-22.6h0.2L582.9,326.2z M589,340.3l5.7,12.4h24.1l-32.8-71.1h-24.7l-33.4,71.1h24
		l6-12.4H589z"/>
	<path class="st1" d="M611.1,290.3h1.3l2,3.4h1.3l-2.2-3.4c1.1-0.1,2-0.7,2-2.1c0-1.5-0.9-2.2-2.7-2.2h-2.9v7.8h1.2V290.3z
		 M611.1,289.3v-2.4h1.6c0.8,0,1.6,0.2,1.6,1.1c0,1.2-0.9,1.3-1.8,1.3H611.1z"/>
	<path class="st1" d="M612.4,297.5c-4.3,0-7.8-3.6-7.8-8c0-4.4,3.5-8,7.8-8c4.3,0,7.8,3.6,7.8,8
		C620.2,293.9,616.7,297.5,612.4,297.5 M612.4,283.4c-3.3,0-6,2.8-6,6.2c0,3.4,2.7,6.2,6,6.2c3.3,0,6.1-2.8,6.1-6.2
		C618.4,286.1,615.7,283.4,612.4,283.4"/>
	<path class="st0" d="M225.6,295h2.2c7.4,0,15.8,1.1,15.8,8.9c0,7.8-8.3,8.9-15.8,8.9h-2.2V295z M248.1,323
		c12.4-1.8,19.1-10.4,19.1-20.2c0-15.3-13.1-22-30.4-22h-34v71.6h22.7v-27.5h0.2l34.2,45.7h28.3L248.1,323z"/>
</g>
</svg>
